<svg width="98" height="47" viewBox="0 0 98 47" fill="none" xmlns="http://www.w3.org/2000/svg">
<path d="M27.9372 4.82031C27.5631 4.23676 27.0165 4.22 26.3937 4.2009C26.3232 4.19874 26.2516 4.19654 26.1792 4.19349C26.1241 4.19091 26.0633 4.1919 25.9997 4.19294C25.7472 4.19707 25.4517 4.20191 25.3028 3.98574C25.1303 3.73512 25.1466 3.25079 25.1602 2.85096C25.1644 2.72462 25.1684 2.60663 25.1661 2.50721C25.1418 1.5784 25.0912 0.591762 24.7392 0.261931C24.4738 0.014464 23.6797 0.0487472 22.9473 0.0803646C22.7099 0.0906141 22.479 0.100583 22.2746 0.100583H6.6862C6.37234 0.100583 6.04334 0.0745524 5.72008 0.0489756C5.09019 -0.00086222 4.4821 -0.0489754 4.05028 0.100583C3.42358 0.318696 3.38115 1.46484 3.34119 2.5441L3.33904 2.60216C3.30549 3.49314 3.08871 4.18064 2.37024 4.11139C1.53461 4.03214 0.703113 4.00716 0.325299 4.77748C-0.120908 5.6889 -0.0288831 6.64295 0.135948 8.35181C0.159494 8.59591 0.184524 8.85542 0.209684 9.13239H28.1783C28.1942 8.92994 28.2113 8.73009 28.228 8.53347C28.359 6.99603 28.4731 5.65647 27.9372 4.82031Z" fill="#FAFAFA"/>
<path fill-rule="evenodd" clip-rule="evenodd" d="M2.38779 10.8272C2.82461 16.8489 3.25665 22.8774 3.68871 28.906L3.68897 28.9097C3.92356 32.183 4.15815 35.4564 4.39351 38.7287H5.28592C5.34673 39.2409 5.41631 39.8733 5.48967 40.54C5.63859 41.8934 5.8031 43.3885 5.94141 44.3073H6.04012C6.94911 43.9685 13.2331 41.2327 13.2359 30.3406C13.2348 30.3096 13.2358 30.2785 13.2389 30.2477H11.6864C11.6113 30.247 11.5384 30.2214 11.4791 30.1749C11.4198 30.1285 11.3772 30.0637 11.3581 29.9905C11.2068 29.6098 11.0848 29.218 10.9932 28.8185C10.0799 29.3439 9.35458 30.1462 8.92071 31.111C8.50886 30.1229 8.45495 29.0205 8.76841 27.9964C9.08187 26.9723 9.74277 26.0917 10.6356 25.5084C10.6471 22.3301 11.8154 19.2663 13.9194 16.8969L13.9523 16.8675C14.0134 16.8137 14.0917 16.7837 14.1729 16.783C14.2199 16.7834 14.2663 16.7937 14.3091 16.813C14.3525 16.8327 14.3913 16.8612 14.423 16.8969C16.5516 19.2695 17.7137 22.3628 17.6776 25.5598C18.5871 26.1269 19.2615 27.0068 19.5755 28.0365C19.8895 29.0661 19.8219 30.1755 19.3852 31.1588C18.9537 30.1924 18.2278 29.3895 17.3127 28.8663C17.2568 29.2535 17.1539 29.6323 17.0063 29.9942C16.9552 30.1485 16.853 30.2477 16.7508 30.2477H15.0952C15.0978 30.2661 15.0997 30.2847 15.1007 30.3033L15.1013 30.3076V30.3166C15.1019 30.3326 15.102 30.3487 15.1014 30.3648C15.1241 41.5695 21.8053 44.1128 22.3685 44.3073H22.5611C22.6103 43.4248 22.7704 42.207 22.9265 41.0198C23.034 40.2016 23.1396 39.398 23.2058 38.7287H24.1085C24.3974 34.6069 24.6946 30.4966 24.9918 26.3863L24.992 26.384L24.992 26.3828C25.3722 21.1252 25.7523 15.8675 26.1152 10.5852H2.4456C2.37747 10.5988 2.38211 10.7123 2.38779 10.8272ZM14.1729 16.783L14.1712 16.783H14.1749L14.1729 16.783Z" fill="#FAFAFA"/>
<path d="M36.1177 6.6954C36.1177 5.20896 36.6205 4.05697 37.626 3.23943C38.6498 2.40331 40.1855 1.98525 42.2331 1.98525C43.586 1.98525 44.7377 2.11531 45.6884 2.37544V6.2216C44.6646 5.90573 43.6499 5.74779 42.6444 5.74779C41.6572 5.74779 41.0173 5.86857 40.7248 6.11011C40.4323 6.33308 40.286 6.66753 40.286 7.11346V16.478C40.286 17.3699 40.9716 17.8158 42.3428 17.8158C43.7322 17.8158 44.8748 17.6765 45.7707 17.3977V21.1603C44.7834 21.439 43.5859 21.5784 42.1782 21.5784C40.1306 21.5784 38.6041 21.1696 37.5986 20.352C36.6113 19.5345 36.1177 18.3825 36.1177 16.8961V6.6954Z" fill="#EBE5F9"/>
<path d="M53.7812 9.34311C53.7812 8.63706 53.3973 8.28403 52.6295 8.28403C51.8616 8.28403 51.4777 8.63706 51.4777 9.34311V17.0912C51.4777 17.7972 51.8616 18.1503 52.6295 18.1503C53.3973 18.1503 53.7812 17.7972 53.7812 17.0912V9.34311ZM47.4191 9.20376C47.4191 7.79165 47.8487 6.6954 48.7079 5.91502C49.5855 5.11606 50.8927 4.71658 52.6295 4.71658C54.3663 4.71658 55.6643 5.11606 56.5235 5.91502C57.4011 6.6954 57.8399 7.79165 57.8399 9.20376V17.2305C57.8399 18.6426 57.4011 19.7482 56.5235 20.5471C55.6643 21.3275 54.3663 21.7177 52.6295 21.7177C50.8927 21.7177 49.5855 21.3275 48.7079 20.5471C47.8487 19.7482 47.4191 18.6426 47.4191 17.2305V9.20376Z" fill="#EBE5F9"/>
<path d="M60.5053 4.80019C60.5053 1.66009 62.1324 0.0900429 65.3866 0.0900429C65.8071 0.0900429 66.3098 0.136494 66.8949 0.229396V3.4624C66.6023 3.42524 66.3281 3.40666 66.0722 3.40666C65.1398 3.40666 64.6736 3.85259 64.6736 4.74445V4.99529H66.8949V8.28403H64.6736V21.439H60.5053V8.28403H58.9421V4.99529H60.5053V4.80019Z" fill="#EBE5F9"/>
<path d="M68.5929 4.80019C68.5929 1.66009 70.2201 0.0900429 73.4743 0.0900429C73.8948 0.0900429 74.3975 0.136494 74.9825 0.229396V3.4624C74.69 3.42524 74.4158 3.40666 74.1598 3.40666C73.2275 3.40666 72.7613 3.85259 72.7613 4.74445V4.99529H74.9825V8.28403H72.7613V21.439H68.5929V8.28403H67.0298V4.99529H68.5929V4.80019Z" fill="#EBE5F9"/>
<path d="M75.9402 16.7567V9.20376C75.9402 7.79165 76.3698 6.6954 77.2291 5.91502C78.0884 5.11606 79.3864 4.71658 81.1232 4.71658C84.4688 4.71658 86.1416 6.21231 86.1416 9.20376V14.8615H79.9166V16.4223C79.9166 16.9797 80.0628 17.3792 80.3553 17.6207C80.6661 17.8437 81.3334 17.9552 82.3572 17.9552C83.3993 17.9552 84.5328 17.7694 85.7577 17.3977V21.0767C84.478 21.4297 83.1068 21.6062 81.6442 21.6062C77.8416 21.6062 75.9402 19.9897 75.9402 16.7567ZM79.9166 11.6564H82.3298V9.2595C82.3298 8.55345 81.9276 8.20042 81.1232 8.20042C80.3188 8.20042 79.9166 8.55345 79.9166 9.2595V11.6564Z" fill="#EBE5F9"/>
<path d="M87.7772 16.7567V9.20376C87.7772 7.79165 88.2068 6.6954 89.0661 5.91502C89.9253 5.11606 91.2234 4.71658 92.9601 4.71658C96.3058 4.71658 97.9786 6.21231 97.9786 9.20376V14.8615H91.7535V16.4223C91.7535 16.9797 91.8998 17.3792 92.1923 17.6207C92.5031 17.8437 93.1704 17.9552 94.1942 17.9552C95.2363 17.9552 96.3698 17.7694 97.5947 17.3977V21.0767C96.3149 21.4297 94.9437 21.6062 93.4812 21.6062C89.6785 21.6062 87.7772 19.9897 87.7772 16.7567ZM91.7535 11.6564H94.1668V9.2595C94.1668 8.55345 93.7646 8.20042 92.9601 8.20042C92.1557 8.20042 91.7535 8.55345 91.7535 9.2595V11.6564Z" fill="#EBE5F9"/>
<path d="M42.7183 31.7011C42.7183 30.329 42.0057 29.643 40.5807 29.643H38.308V42.1519H40.5807C42.0057 42.1519 42.7183 41.4506 42.7183 40.048V31.7011ZM36.7105 28.2252H40.6707C41.8707 28.2252 42.7783 28.5377 43.3933 29.1628C44.0083 29.7878 44.3158 30.6263 44.3158 31.6783V40.0938C44.3158 41.1762 44.0158 42.03 43.4158 42.655C42.8158 43.2801 41.9157 43.5926 40.7157 43.5926H36.7105V28.2252Z" fill="#EBE5F9"/>
<path d="M46.9449 40.2767V33.9194C46.9449 32.8369 47.2449 31.9755 47.845 31.3352C48.46 30.6797 49.3826 30.3519 50.6126 30.3519C51.8427 30.3519 52.7502 30.6797 53.3352 31.3352C53.9353 31.9755 54.2353 32.8369 54.2353 33.9194V37.8984H48.52V40.2081C48.52 40.8942 48.73 41.4049 49.15 41.7403C49.5701 42.0757 50.2226 42.2434 51.1076 42.2434C51.9927 42.2434 52.9077 42.1062 53.8528 41.8318V43.3411C53.1027 43.585 52.2102 43.707 51.1751 43.707C48.355 43.707 46.9449 42.5636 46.9449 40.2767ZM48.52 36.5492H52.7052V33.9194C52.7052 32.4863 52.0077 31.7697 50.6126 31.7697C49.2175 31.7697 48.52 32.4863 48.52 33.9194V36.5492Z" fill="#EBE5F9"/>
<path d="M56.9702 27.1275H58.5678V43.5926H56.9702V27.1275Z" fill="#EBE5F9"/>
<path d="M62.4601 29.117C61.8151 29.117 61.4926 28.7664 61.4926 28.0651C61.4926 27.3638 61.8151 27.0131 62.4601 27.0131C63.1202 27.0131 63.4502 27.3638 63.4502 28.0651C63.4502 28.7664 63.1202 29.117 62.4601 29.117ZM61.6726 30.6721H63.2702V43.5926H61.6726V30.6721Z" fill="#EBE5F9"/>
<path d="M71.5052 30.5806H73.1253L70.2901 43.5926H68.04L65.2049 30.5806H66.8475L68.085 36.5492L69.1876 42.4492C69.6376 39.9185 70.4101 35.9622 71.5052 30.5806Z" fill="#EBE5F9"/>
<path d="M74.8295 40.2767V33.9194C74.8295 32.8369 75.1296 31.9755 75.7296 31.3352C76.3446 30.6797 77.2672 30.3519 78.4972 30.3519C79.7273 30.3519 80.6348 30.6797 81.2198 31.3352C81.8199 31.9755 82.1199 32.8369 82.1199 33.9194V37.8984H76.4046V40.2081C76.4046 40.8942 76.6146 41.4049 77.0346 41.7403C77.4547 42.0757 78.1072 42.2434 78.9922 42.2434C79.8773 42.2434 80.7923 42.1062 81.7374 41.8318V43.3411C80.9873 43.585 80.0948 43.707 79.0597 43.707C76.2396 43.707 74.8295 42.5636 74.8295 40.2767ZM76.4046 36.5492H80.5898V33.9194C80.5898 32.4863 79.8923 31.7697 78.4972 31.7697C77.1022 31.7697 76.4046 32.4863 76.4046 33.9194V36.5492Z" fill="#EBE5F9"/>
<path d="M88.995 30.512H89.5575V32.067H88.7925C88.2525 32.067 87.765 32.2119 87.3299 32.5015C87.1949 32.593 86.9024 32.7988 86.4524 33.119V43.5926H84.8548V30.5806H86.3849V31.5639C86.4299 31.5334 86.5424 31.4496 86.7224 31.3124C86.9174 31.1752 87.0299 31.0989 87.0599 31.0837C87.1049 31.0532 87.2024 30.9922 87.3524 30.9007C87.5174 30.8093 87.6375 30.7559 87.7125 30.7407C87.8025 30.7102 87.9225 30.6721 88.0725 30.6263C88.2975 30.5501 88.605 30.512 88.995 30.512Z" fill="#EBE5F9"/>
<path d="M96.4024 30.5806H98L94.4898 47H92.9598L93.6573 43.5926H92.8698L90.0796 30.5806H91.6997L93.0498 37.0523L94.0398 42.4492C94.3398 40.6502 94.6699 38.8513 95.0299 37.0523L96.4024 30.5806Z" fill="#EBE5F9"/>
</svg>
